<?xml version="1.0" encoding="UTF-8" standalone="no"?>
<svg
   xmlns:dc="http://purl.org/dc/elements/1.1/"
   xmlns:cc="http://creativecommons.org/ns#"
   xmlns:rdf="http://www.w3.org/1999/02/22-rdf-syntax-ns#"
   xmlns:svg="http://www.w3.org/2000/svg"
   xmlns="http://www.w3.org/2000/svg"
   xmlns:sodipodi="http://sodipodi.sourceforge.net/DTD/sodipodi-0.dtd"
   xmlns:inkscape="http://www.inkscape.org/namespaces/inkscape"
   viewBox="0 0 200 200.00001"
   height="200"
   width="200"
   xml:space="preserve"
   id="svg2"
   version="1.1"
   sodipodi:docname="port-logo-ico.svg"
   inkscape:export-filename="/home/phi/SITES/port-of-alsea.illumiphi.com/user/assets/port-logo-ico.svg.png"
   inkscape:export-xdpi="96"
   inkscape:export-ydpi="96"
   inkscape:version="0.92.4 (5da689c313, 2019-01-14)"><sodipodi:namedview
     pagecolor="#ffffff"
     bordercolor="#666666"
     borderopacity="1"
     objecttolerance="10"
     gridtolerance="10"
     guidetolerance="10"
     inkscape:pageopacity="0"
     inkscape:pageshadow="2"
     inkscape:window-width="1920"
     inkscape:window-height="1016"
     id="namedview170"
     showgrid="false"
     fit-margin-top="10"
     fit-margin-left="10"
     fit-margin-right="10"
     fit-margin-bottom="10"
     inkscape:zoom="1.0727273"
     inkscape:cx="-60.618606"
     inkscape:cy="73.29393"
     inkscape:window-x="0"
     inkscape:window-y="795"
     inkscape:window-maximized="1"
     inkscape:current-layer="svg2" /><metadata
     id="metadata8"><rdf:RDF><cc:Work
         rdf:about=""><dc:format>image/svg+xml</dc:format><dc:type
           rdf:resource="http://purl.org/dc/dcmitype/StillImage" /><dc:title></dc:title></cc:Work></rdf:RDF></metadata><defs
     id="defs6"><clipPath
       id="clipPath24"
       clipPathUnits="userSpaceOnUse"><path
         id="path22"
         d="M 0,864 H 864 V 0 H 0 Z"
         inkscape:connector-curvature="0" /></clipPath></defs><rect
     style="fill:#2a6bd3;fill-opacity:1;fill-rule:evenodd;stroke:#ffffff;stroke-width:1.0529834;stroke-miterlimit:4;stroke-dasharray:none;stroke-opacity:1"
     id="rect1164"
     width="215.74338"
     height="118.34678"
     x="-6.0067301"
     y="-6.9152083" /><rect
     style="fill:#29abe2;fill-opacity:1;fill-rule:evenodd;stroke:#ffffff;stroke-width:1.05031562;stroke-miterlimit:4;stroke-dasharray:none;stroke-opacity:1"
     id="rect1162"
     width="223.22063"
     height="108.10464"
     x="-7.8971262"
     y="96.812088" /><g
     id="g1139"
     transform="matrix(1.5036189,0,0,1.5036189,-58.824354,-87.276905)"><g
       id="g10"
       transform="matrix(1.3333333,0,0,-1.3333333,-85.405998,737.79697)"><g
         id="g1317"><ellipse
           ry="48.090973"
           rx="72.186516"
           transform="scale(1,-1)"
           cy="-459.81564"
           cx="144.43799"
           id="path975"
           style="fill:#ffffff;fill-rule:evenodd;stroke:#ffffff;stroke-width:0.75195557;stroke-miterlimit:4;stroke-dasharray:none;stroke-opacity:1" /><g
           transform="translate(152.4446,446.30094)"
           id="g70"><path
             inkscape:connector-curvature="0"
             id="path72"
             style="fill:#29abe2;fill-opacity:1;fill-rule:nonzero;stroke:none"
             d="M 0,0 C 0.213,0.3 0.443,1.139 -0.058,1.441 H -0.173 C -0.676,0.929 -1.283,0.34 -2.075,0.115 -2.31,0.049 -2.653,0.23 -2.767,-0.115 -2.15,-0.732 -0.546,-0.772 0,0" /></g><g
           transform="translate(153.0209,445.83974)"
           id="g74"><path
             inkscape:connector-curvature="0"
             id="path76"
             style="fill:#29abe2;fill-opacity:1;fill-rule:nonzero;stroke:none"
             d="m 0,0 c -0.074,0.003 -0.08,0.074 -0.173,0.058 -0.012,-0.065 -0.064,-0.09 -0.115,-0.116 -0.937,-0.088 -1.943,-0.529 -2.94,-0.461 -0.513,0.036 -0.99,0.505 -1.441,0.173 C -4.017,-2.064 0.022,-2.396 0,0" /></g><g
           transform="translate(152.3294,443.53404)"
           id="g78"><path
             inkscape:connector-curvature="0"
             id="path80"
             style="fill:#29abe2;fill-opacity:1;fill-rule:nonzero;stroke:none"
             d="M 0,0 C -1.439,0.079 -2.599,0.437 -3.574,0.98 -3.496,-0.678 -0.753,-1.658 0,0" /></g><g
           transform="translate(136.0764,432.69714)"
           id="g82"><path
             inkscape:connector-curvature="0"
             id="path84"
             style="fill:#29abe2;fill-opacity:1;fill-rule:nonzero;stroke:none"
             d="M 0,0 C -0.646,0.306 -1.277,-0.366 -1.672,-0.692 -1.068,-0.944 -0.25,-0.479 0,0" /></g><g
           transform="translate(155.848,436.90514)"
           id="g86"><path
             inkscape:connector-curvature="0"
             id="path88"
             style="fill:#29abe2;fill-opacity:1;fill-rule:nonzero;stroke:none"
             d="M 0,0 C 0.051,-0.199 0.448,-0.051 0.404,-0.346 0.345,-0.422 0.347,-0.558 0.288,-0.634 0.003,-0.599 -0.08,-0.765 -0.288,-0.807 c -0.03,-0.241 0.032,-0.391 0.115,-0.519 0.44,0.118 0.794,0.321 1.211,0.461 0.005,0.408 0.008,0.885 0.346,1.095 0.178,0.076 0.164,-0.015 0.403,0 0.04,0.229 0.289,0.25 0.231,0.577 C 1.744,0.774 1.486,0.724 1.153,0.749 0.961,0.307 0.268,0.366 0,0" /></g><g
           transform="translate(163.3418,441.86244)"
           id="g90"><path
             inkscape:connector-curvature="0"
             id="path92"
             style="fill:#29abe2;fill-opacity:1;fill-rule:nonzero;stroke:none"
             d="M 0,0 C 0.151,-0.016 0.248,0.021 0.23,0.173 0.157,0.176 0.151,0.247 0.058,0.23 0.039,0.153 -0.025,0.12 0,0" /></g><g
           transform="translate(164.898,445.20574)"
           id="g94"><path
             inkscape:connector-curvature="0"
             id="path96"
             style="fill:#29abe2;fill-opacity:1;fill-rule:nonzero;stroke:none"
             d="M 0,0 C 0.067,-0.202 0.361,-0.177 0.634,-0.173 0.714,-0.08 0.683,0.124 0.807,0.173 1.043,0.136 1.207,-0.146 1.268,0.231 0.833,0.26 0.244,0.455 0,0" /></g><g
           transform="translate(164.7829,443.59174)"
           id="g98"><path
             inkscape:connector-curvature="0"
             id="path100"
             style="fill:#29abe2;fill-opacity:1;fill-rule:nonzero;stroke:none"
             d="M 0,0 C -0.082,-0.168 -0.588,0.088 -0.519,-0.231 -0.407,-0.417 -0.086,-0.425 0.058,-0.288 0.026,-0.205 0.125,0.01 0,0" /></g><g
           transform="translate(153.3118,436.21334)"
           id="g102"><path
             inkscape:connector-curvature="0"
             id="path104"
             style="fill:#29abe2;fill-opacity:1;fill-rule:nonzero;stroke:none"
             d="M 0,0 C 0.443,0.038 0.502,0.459 0.519,0.922 0.445,0.926 0.439,0.996 0.346,0.98 0.227,0.657 -0.012,0.454 0,0" /></g><g
           transform="translate(135.1516,429.12324)"
           id="g106"><path
             inkscape:connector-curvature="0"
             id="path108"
             style="fill:#29abe2;fill-opacity:1;fill-rule:nonzero;stroke:none"
             d="m 0,0 c -1.425,0.041 -3.014,-0.559 -4.669,-0.288 1.113,0.046 1.912,0.14 2.94,0.346 0.432,0.086 1.321,0.21 1.326,0.634 0.002,0.188 -0.156,0.379 -0.346,0.346 -1.589,-0.28 -4.223,-0.453 -6.168,-0.577 -0.218,-0.283 -0.524,-0.649 -0.519,-0.98 -0.292,-0.188 -0.426,-0.535 -0.461,-0.98 1.736,0.148 4.331,0.279 6.225,0.634 C -1.187,-0.504 -0.259,-0.587 0,0" /></g><g
           transform="translate(128.1768,426.12584)"
           id="g110"><path
             inkscape:connector-curvature="0"
             id="path112"
             style="fill:#29abe2;fill-opacity:1;fill-rule:nonzero;stroke:none"
             d="M 0,0 C 0.206,0.198 0.661,0.146 1.038,0.173 0.876,-0.069 0.386,0.018 0,0 M 0.058,-0.98 C 0.209,-0.86 0.66,-0.805 0.865,-0.922 0.709,-1.055 0.309,-0.943 0.058,-0.98 M 9.972,0.749 C 9.108,0.688 8.25,0.25 7.321,0 5.555,-0.475 3.478,-0.784 1.556,-0.749 2.941,-0.606 4.391,-0.21 5.476,0.115 6.605,0.454 7.743,0.648 8.07,1.614 5.937,1.307 3.771,0.227 1.326,0.231 2.908,0.52 4.491,0.99 5.995,1.441 6.237,1.514 7.342,1.671 7.321,2.075 7.307,2.341 6.982,2.312 6.86,2.306 6.445,2.284 5.908,1.97 5.303,1.845 3.346,1.44 1.187,1.322 -0.98,1.211 -1.704,-0.314 -3.376,-0.89 -4.093,-2.421 c 4.387,0.385 9.604,0.754 12.97,2.306 0.418,0.192 1.005,0.402 1.095,0.864" /></g><g
           transform="translate(138.2644,425.89534)"
           id="g114"><path
             inkscape:connector-curvature="0"
             id="path116"
             style="fill:#29abe2;fill-opacity:1;fill-rule:nonzero;stroke:none"
             d="m 0,0 c -4.004,-1.626 -9.395,-1.865 -14.411,-2.479 -0.09,-0.551 0.157,-0.765 0.404,-0.98 4.517,0.325 9.31,0.784 12.796,2.191 0.543,0.218 1.474,0.519 1.326,1.268 z" /></g><g
           transform="translate(130.8284,430.85264)"
           id="g118"><path
             inkscape:connector-curvature="0"
             id="path120"
             style="fill:#29abe2;fill-opacity:1;fill-rule:nonzero;stroke:none"
             d="M 0,0 C 0.959,0.175 2.237,0.03 2.824,0.576 2.8,0.966 2.379,0.949 2.19,0.749 H -0.346 C -1.1,0.216 -1.959,-0.212 -2.363,-1.095 -0.674,-0.901 1.979,-1.052 3.055,-0.173 2.277,0.125 0.872,-0.204 0,0" /></g><g
           transform="translate(148.7003,453.16044)"
           id="g122"><path
             inkscape:connector-curvature="0"
             id="path124"
             style="fill:#29abe2;fill-opacity:1;fill-rule:nonzero;stroke:none"
             d="M 0,0 C -0.279,0.372 -0.561,0.746 -0.842,1.121 -0.965,1.102 -1.088,1.082 -1.211,1.062 -0.819,0.676 -0.416,0.319 0,0" /></g><g
           transform="translate(148.4095,453.56404)"
           id="g126"><path
             inkscape:connector-curvature="0"
             id="path128"
             style="fill:#29abe2;fill-opacity:1;fill-rule:nonzero;stroke:none"
             d="M 0,0 C 0.127,0.568 0.008,0.874 -0.208,1.238 -0.58,1.181 -0.951,1.124 -1.322,1.066 -0.882,0.71 -0.442,0.354 0,0" /></g><g
           transform="translate(164.9556,453.96744)"
           id="g130"><path
             inkscape:connector-curvature="0"
             id="path132"
             style="fill:#29abe2;fill-opacity:1;fill-rule:nonzero;stroke:none"
             d="M 0,0 C -0.011,-0.204 0.274,-0.285 0.404,-0.173 0.492,0.109 0.117,0.1 0,0" /></g><g
           transform="translate(146.3343,453.16044)"
           id="g134"><path
             inkscape:connector-curvature="0"
             id="path136"
             style="fill:#29abe2;fill-opacity:1;fill-rule:nonzero;stroke:none"
             d="M 0,0 C 0.612,-0.533 1.69,-1.125 2.536,-1.21 2.49,-0.434 1.766,0.021 1.268,0.519 0.967,0.821 0.651,1.109 0.344,1.406 -0.151,1.329 -0.646,1.253 -1.139,1.175 -0.757,0.733 -0.369,0.321 0,0" /></g><g
           transform="translate(165.3592,456.38854)"
           id="g138"><path
             inkscape:connector-curvature="0"
             id="path140"
             style="fill:#29abe2;fill-opacity:1;fill-rule:nonzero;stroke:none"
             d="M 0,0 C 0.373,-0.034 0.857,0.18 1.021,0.482 0.485,0.422 -0.05,0.367 -0.586,0.304 -0.401,0.22 -0.281,0.025 0,0" /></g><g
           transform="translate(197.5411,456.68674)"
           id="g142"><path
             inkscape:connector-curvature="0"
             id="path144"
             style="fill:#29abe2;fill-opacity:1;fill-rule:nonzero;stroke:none"
             d="m 0,0 c -4.998,0.883 -10.299,1.312 -16.204,1.312 -3.804,0 -7.664,-0.197 -11.549,-0.509 -0.07,-0.377 -0.144,-0.735 -0.224,-1.044 -0.295,-1.143 -0.449,-2.242 -0.807,-3.285 -0.493,-1.439 -1.149,-2.958 -1.844,-4.381 -1.953,-3.999 -4.683,-8.156 -7.798,-10.674 l -0.179,-0.147 c -0.994,-0.815 -2.119,-1.566 -3.206,-2.264 -1.088,-0.699 -2.207,-1.478 -3.516,-1.845 -0.815,-0.228 -1.56,-0.296 -2.479,-0.634 -0.094,-0.034 -0.262,-0.122 -0.346,-0.173 -1.857,-1.134 -3.046,-3.393 -4.842,-4.899 -1.894,-1.589 -3.561,-2.9 -5.879,-3.805 -0.738,-0.146 -1.383,-0.385 -2.018,-0.634 -0.338,0.05 -0.518,-0.058 -0.691,-0.173 -2.992,-0.649 -6.676,-1.042 -10.376,-1.21 -1.377,-0.063 -2.8,-0.452 -3.574,0.057 0.11,0.722 0.853,0.959 1.326,1.326 0.497,0.386 0.94,0.876 1.383,1.326 0.882,0.895 1.812,1.885 2.479,2.997 0.417,0.697 0.586,1.289 0.98,1.787 0.728,0.922 1.848,1.777 2.939,2.479 0.843,0.542 1.89,0.859 2.364,1.844 0.528,1.517 -0.296,2.766 -0.634,3.978 -0.2,0.718 -0.252,1.516 -0.404,2.248 -0.207,0.998 -0.553,2.37 -0.691,3.401 -0.082,0.608 -0.017,1.249 -0.116,1.844 -0.125,0.756 -0.358,1.521 -0.576,2.191 -0.344,1.052 -1.17,1.698 -1.095,2.997 0.708,0.543 1.88,-0.196 2.594,-0.518 4.819,-2.178 8.904,-4.753 12.623,-8.186 0.39,-0.359 0.742,-0.836 1.096,-1.037 0.945,-0.54 2.563,-0.376 3.458,-0.058 0.63,0.224 1.311,0.59 1.672,1.038 -0.162,0.28 -0.65,0.234 -1.038,0.288 -1.422,0.806 -2.462,1.995 -2.997,3.689 0.754,0.785 2.222,0.374 3.286,0.865 1.022,0.471 1.827,2.101 2.017,3.343 0.055,0.356 0.187,1.186 0.058,1.672 -0.068,0.255 -0.403,0.403 -0.519,0.634 -0.26,0.517 -0.27,1.208 -0.519,1.787 -0.146,0.338 -0.326,0.649 -0.523,0.944 -0.772,-0.116 -1.542,-0.235 -2.312,-0.354 -0.041,-0.569 -0.091,-1.13 0.068,-1.743 0.182,-0.7 1.558,-1.805 0.807,-2.767 -1.729,-0.354 -2.681,0.985 -3.862,1.556 -0.711,0.727 -1.471,1.404 -2.165,2.148 -1.07,-0.17 -2.141,-0.34 -3.205,-0.511 -13.279,-2.13 -25.822,-4.141 -37.567,-4.141 h -0.005 c -0.807,0 -1.615,0.009 -2.411,0.029 -11.325,0.29 -20.686,2.524 -28.139,5.413 3.617,-24.723 34.709,-44.04 72.532,-44.04 35.679,0 65.366,17.189 71.655,39.89 C 13.615,-3.273 7.384,-1.317 0,0" /></g><g
           transform="translate(158.2666,441.34364)"
           id="g146"><path
             inkscape:connector-curvature="0"
             id="path148"
             style="fill:#29abe2;fill-opacity:1;fill-rule:nonzero;stroke:none"
             d="M 0,0 C -0.051,-0.55 -0.782,-0.681 -1.153,-0.576 -1.14,0.229 -0.609,0.313 0,0 M 1.326,13.95 C 1.311,13.657 1.121,13.539 0.922,13.431 0.808,13.471 0.769,13.585 0.749,13.719 0.538,13.699 0.485,13.522 0.403,13.373 c -0.412,0.699 0.436,0.99 0.923,0.577 M 2.075,3.286 C 2.09,3.078 1.969,3.008 1.96,2.824 1.696,2.704 1.208,2.808 1.153,2.479 1.187,2.282 1.472,2.336 1.556,2.19 1.499,1.765 0.778,1.527 0.403,1.787 0.717,2.377 0.975,3.022 1.326,3.574 1.657,3.559 1.775,3.331 2.075,3.286 M 3.862,9.684 C 3.852,9.514 3.707,9.327 3.804,9.223 3.971,9.12 4.112,8.993 4.381,8.992 4.442,8.405 3.731,8.307 3.343,8.358 3.205,8.538 3.334,8.836 3.459,8.935 3.424,9.246 3.035,9.203 2.767,9.281 2.729,10.014 3.514,10.217 3.862,9.684 M -5.015,13.2 C -4.459,10.066 -4.025,6.394 -4.266,2.824 -5.261,2.551 -5.388,1.411 -5.707,0.461 -5.761,0.176 -5.44,0.267 -5.476,0 c -0.089,-0.57 -1.107,-0.5 -0.75,-1.326 0.261,0.047 0.338,0.278 0.462,0.461 0.186,-0.139 0.614,-0.038 0.691,-0.288 0.057,-0.727 -0.894,-0.495 -1.383,-0.519 -0.266,-0.156 -0.316,-0.529 -0.404,-0.864 0.017,-0.118 0.156,-0.113 0.173,-0.231 0.365,-0.095 0.356,0.182 0.634,0.173 0.155,-0.878 -0.268,-1.387 -0.576,-1.96 0.804,-0.932 1.04,0.913 1.441,1.211 0.327,0.038 0.389,-0.188 0.634,-0.231 0.308,0.076 0.297,0.472 0.519,0.634 0.788,0.159 1.137,-1.255 1.671,-0.288 0.044,0.293 -0.321,0.178 -0.345,0.404 0.089,0.276 0.226,0.503 0.403,0.691 0.388,-0.217 1.006,-0.273 1.038,0.288 l 0.115,0.346 c 0.08,0.093 0.163,0.183 0.231,0.289 0.36,-0.147 0.475,-0.141 0.864,-0.058 0.161,0.034 0.085,-0.134 0.231,-0.058 0.277,0.145 0.281,0.428 0.519,0.692 0.47,-0.201 0.85,0.273 1.037,0.692 C 1.566,0.326 1.155,-0.011 0.922,0.173 1.073,0.56 1.143,1.028 1.787,0.922 2.055,1.711 2.843,1.979 3.055,2.824 2.884,3.262 2.898,3.374 3.113,3.747 2.996,3.97 2.684,3.689 2.479,3.862 2.411,4.314 2.704,4.405 2.824,4.669 3.11,4.705 3.13,4.475 3.459,4.554 3.73,4.761 3.978,5.547 3.804,5.822 3.419,5.534 3.332,4.949 2.594,5.015 2.423,5.094 2.53,5.451 2.421,5.591 2.202,5.712 2.042,5.55 1.844,5.649 1.768,6.018 2.136,6.202 2.306,6.514 2.481,6.836 2.495,7.277 2.709,7.494 2.912,7.699 3.34,7.62 3.401,7.955 3.824,8.032 3.998,7.861 4.208,7.724 3.966,7.293 3.463,7.124 3.228,6.687 3.08,6.546 2.61,6.728 2.536,6.514 2.764,6.338 2.973,6.144 3.113,5.879 3.43,6.023 3.441,6.474 3.689,6.687 3.959,6.745 3.881,6.455 4.15,6.514 4.562,6.582 4.521,7.103 4.727,7.378 4.707,7.628 4.41,7.6 4.381,7.839 4.577,8.162 4.704,8.554 4.9,8.877 4.917,9.164 4.536,9.051 4.496,9.281 4.475,9.667 4.694,9.813 4.727,10.145 4.64,10.423 4.136,10.284 3.92,10.433 3.854,11.056 4.288,11.179 4.496,11.529 4.46,11.742 4.334,11.866 4.265,12.047 3.958,11.874 3.722,11.63 3.228,11.644 3.146,11.274 3.684,11.523 3.631,11.183 3.556,10.751 2.97,10.548 2.479,10.722 c 0.246,0.714 0.722,1.199 0.922,1.96 -0.316,0.164 -0.578,0.382 -0.807,0.634 -0.296,-0.01 -0.288,-0.572 -0.634,-0.346 -0.252,0.477 0.335,0.577 0.346,0.98 -0.062,0.322 -0.58,0.189 -0.634,0.518 -0.018,0.306 0.452,0.124 0.691,0.173 0.411,0.122 0.663,0.402 0.915,0.682 C 0.313,14.97 -2.655,14.562 -5.619,14.128 -5.426,13.81 -5.24,13.486 -5.015,13.2" /></g><g
           transform="translate(149.7955,466.47604)"
           id="g150"><path
             inkscape:connector-curvature="0"
             id="path152"
             style="fill:#2a6bd3;fill-opacity:1;fill-rule:nonzero;stroke:none"
             d="M 0,0 C -0.412,0.383 -0.548,0.955 -1.153,1.153 H -1.268 C -1.255,1.044 -1.333,1.026 -1.326,0.922 -0.924,0.124 -0.29,-0.576 0.426,-1.145 0.708,-1.089 0.995,-1.036 1.278,-0.981 0.82,-0.678 0.383,-0.356 0,0" /></g><g
           transform="translate(142.129,465.32314)"
           id="g154"><path
             inkscape:connector-curvature="0"
             id="path156"
             style="fill:#2a6bd3;fill-opacity:1;fill-rule:nonzero;stroke:none"
             d="m 0,0 c -0.085,0.389 -0.026,0.762 -0.288,1.095 -0.83,0.196 -0.786,-0.631 -0.634,-1.21 0.136,-0.523 0.308,-1.053 0.495,-1.582 0.292,0.058 0.569,0.113 0.839,0.166 C 0.26,-1.033 0.115,-0.528 0,0" /></g><g
           transform="translate(149.6665,465.22224)"
           id="g158"><path
             inkscape:connector-curvature="0"
             id="path160"
             style="fill:#2a6bd3;fill-opacity:1;fill-rule:nonzero;stroke:none"
             d="m 0,0 c -0.316,0.253 -0.62,0.529 -0.908,0.85 -0.327,0.364 -0.733,1.403 -1.096,1.557 -0.313,0.132 -0.584,-0.09 -0.922,-0.058 -1.11,0.104 -1.906,1.489 -3.343,1.384 -0.068,0.489 -0.442,0.672 -0.634,1.037 -0.92,0.099 -1.31,0.728 -2.018,1.038 -1.3,-0.098 -2.783,-0.536 -4.15,-0.173 -1.326,0.352 -1.806,1.925 -3.516,1.787 -0.661,0.327 -1.462,1.453 -2.364,0.807 0.091,-0.549 0.619,-0.84 0.98,-1.153 2.205,-1.916 4.396,-3.721 7.09,-5.361 0.443,-0.27 1.007,-0.715 1.384,-0.692 0.527,0.033 0.868,0.951 1.671,0.634 0.403,-0.159 0.521,-0.907 0.807,-1.268 0.159,-0.2 0.712,-0.59 0.98,-0.749 0.379,-0.224 0.836,-0.414 1.323,-0.593 0.6,0.12 1.029,0.207 1.248,0.252 C -2.321,-0.465 -1.163,-0.231 0,0" /></g><g
           transform="translate(150.4873,466.93724)"
           id="g162"><path
             inkscape:connector-curvature="0"
             id="path164"
             style="fill:#2a6bd3;fill-opacity:1;fill-rule:nonzero;stroke:none"
             d="m 0,0 c -0.44,0.383 -0.697,1.015 -1.326,1.153 -0.163,-0.332 0.024,-0.662 0.173,-0.865 0.478,-0.649 1.387,-1.152 2.173,-1.647 0.309,0.06 0.618,0.12 0.928,0.179 C 1.225,-0.838 0.522,-0.455 0,0" /></g><g
           transform="translate(155.3294,467.74424)"
           id="g166"><path
             inkscape:connector-curvature="0"
             id="path168"
             style="fill:#2a6bd3;fill-opacity:1;fill-rule:nonzero;stroke:none"
             d="M 0,0 C 0.775,-0.109 1.634,-0.133 2.19,-0.461 1.453,-0.541 0.599,-0.25 0,0 M 2.997,3.632 C 3.679,3.621 4.615,3.419 5.072,2.997 4.374,3.202 3.545,3.276 2.997,3.632 m -4.496,0.057 c 1.121,0.238 2.862,0.592 3.862,0 -1.359,0.207 -2.659,0.113 -3.862,0 m 3.92,-4.208 C 2.855,-0.58 3.263,-0.694 3.652,-0.839 4.336,-0.73 5.02,-0.618 5.707,-0.517 5.591,-0.46 5.476,-0.403 5.361,-0.346 4.6,0.032 3.754,0.241 3.286,0.634 4.323,0.474 5.161,0.079 5.937,-0.346 5.996,-0.378 6.046,-0.422 6.103,-0.457 6.769,-0.361 7.438,-0.281 8.105,-0.194 7.412,0.551 6.291,0.972 5.303,1.268 4.963,1.37 4.493,1.406 4.265,1.729 5.424,1.606 6.556,1.069 7.494,0.576 7.826,0.402 8.144,0.087 8.531,0.173 8.664,1.262 7.662,1.839 6.802,2.248 6.265,2.504 5.587,2.644 5.361,2.997 6.58,2.68 7.427,1.989 8.589,1.614 8.976,2.117 8.518,2.706 8.301,3.113 6.28,4.603 2.587,4.766 -0.75,4.496 -1.772,4.413 -2.795,4.104 -3.689,4.093 -4.107,4.087 -4.527,4.391 -4.785,3.92 -4.314,2.881 -2.703,3.796 -1.729,3.574 -2.474,3.32 -3.568,3.415 -4.035,2.882 -1.441,2.293 1.975,2.875 4.035,1.787 3.347,1.665 2.565,2.084 1.672,2.248 0.165,2.525 -1.979,2.4 -3.632,2.479 -3.927,2.493 -4.34,2.744 -4.496,2.306 -3.159,1.456 -0.98,1.881 0.692,1.383 0.872,1.33 0.975,1.19 1.153,1.153 1.905,0.996 2.698,1.128 3.17,0.576 1.2,1.227 -1.252,1.32 -3.459,1.672 -3.988,1.756 -4.482,2.132 -5.015,2.018 -4.982,1.469 -4.296,1.144 -3.805,0.98 -2.646,0.594 -1.28,0.407 -0.173,0 -1.18,0.092 -2.101,0.296 -2.998,0.519 c -0.873,0.217 -1.649,0.815 -2.478,0.692 0.532,-1.082 2.004,-1.216 3.17,-1.672 0.588,-0.23 1.192,-0.463 1.787,-0.634 0.33,-0.095 0.701,-0.157 1.02,-0.272 0.93,0.164 1.861,0.321 2.796,0.472 -0.328,0.143 -0.633,0.268 -0.876,0.376" /></g><g
           transform="translate(150.1414,468.09004)"
           id="g170"><path
             inkscape:connector-curvature="0"
             id="path172"
             style="fill:#2a6bd3;fill-opacity:1;fill-rule:nonzero;stroke:none"
             d="m 0,0 c 0.012,-0.776 0.776,-1.199 1.383,-1.556 0.436,-0.256 0.919,-0.468 1.384,-0.686 0.816,0.153 1.635,0.3 2.457,0.447 C 3.444,-1.236 1.669,-0.671 0,0" /></g><g
           transform="translate(174.2938,469.01234)"
           id="g174"><path
             inkscape:connector-curvature="0"
             id="path176"
             style="fill:#2a6bd3;fill-opacity:1;fill-rule:nonzero;stroke:none"
             d="m 0,0 c -1.037,0.249 -2.14,0.535 -2.824,0.404 0.009,-0.145 -0.089,-0.181 -0.173,-0.231 0.044,-0.266 0.082,-0.563 0.127,-0.859 1.4,0.085 2.799,0.14 4.197,0.161 C 0.979,-0.297 0.544,-0.13 0,0" /></g><g
           transform="translate(128.0064,475.58364)"
           id="g178"><path
             inkscape:connector-curvature="0"
             id="path180"
             style="fill:#2a6bd3;fill-opacity:1;fill-rule:nonzero;stroke:none"
             d="m 0,0 c -0.691,0.707 -1.342,1.679 -1.844,2.536 -0.494,0.842 -0.805,2.163 -1.96,1.96 -0.011,-0.573 0.489,-1.042 0.807,-1.614 0.778,-1.4 1.498,-2.902 2.594,-3.689 C -0.114,-1.015 0.49,-1.371 0.865,-1.21 0.877,-0.663 0.36,-0.368 0,0" /></g><g
           transform="translate(125.8735,481.05984)"
           id="g182"><path
             inkscape:connector-curvature="0"
             id="path184"
             style="fill:#2a6bd3;fill-opacity:1;fill-rule:nonzero;stroke:none"
             d="m 0,0 c 0.99,0.129 2.442,0.978 2.998,-0.173 -0.733,-0.909 -0.194,-1.866 0.634,-2.709 1.1,-1.122 3.245,-2.503 4.726,-2.998 1.35,-0.45 3.678,-0.349 4.035,0.865 -0.111,0.809 -0.953,0.652 -1.383,0.231 -3.57,-0.111 -5.529,1.388 -7.09,3.285 0.03,0.427 -0.292,0.702 -0.115,1.095 0.363,-0.045 0.786,-0.136 0.922,0.173 0.311,-0.159 0.161,-0.389 0.288,-0.691 0.761,-1.812 3.821,-3.023 6.168,-2.364 1.128,0.317 1.724,1.927 1.441,3.747 -0.212,1.361 -0.922,3.321 -0.404,4.785 0.101,0.283 0.297,0.474 0.289,0.749 C 12.474,7.117 10.837,7.53 10.088,8.185 9.539,8.666 9.229,9.483 8.358,9.338 8.423,8.976 8.727,8.856 8.877,8.531 9.045,8.167 9.027,7.722 9.281,7.321 9.771,6.546 10.724,6.024 10.895,5.073 10.978,4.606 10.832,4.025 10.895,3.459 11.046,2.093 11.68,1.203 11.471,-0.346 11.333,-1.369 10.641,-1.981 9.742,-2.363 9.185,-2.382 8.635,-2.394 8.358,-2.133 8.434,-1.215 7.366,-1.187 6.802,-1.095 5.984,-1.041 5.591,0.376 4.842,0.461 4.548,0.495 4.254,0.267 3.977,0.288 3.266,0.343 2.982,0.969 2.363,1.326 1.894,1.159 0.754,0.63 0.461,1.326 1.039,1.402 1.377,1.165 1.787,1.441 2.222,1.733 2.083,2.471 2.594,2.709 2.387,4.101 3.74,4.945 3.113,6.11 2.879,6.544 2.301,6.966 1.902,7.378 1.474,7.821 1.154,8.374 0.634,8.531 0.763,7.45 2.342,6.108 1.441,4.727 1.116,4.825 1.301,5.329 1.268,5.534 c -0.497,3.09 -2.94,5.123 -4.208,7.551 -0.267,0.155 -0.336,0.509 -0.749,0.519 -0.095,-0.657 0.302,-1.291 0.634,-1.845 0.321,-0.535 0.749,-1.021 1.095,-1.556 0.338,-0.522 0.575,-1.17 0.865,-1.787 0.763,-1.625 2.231,-4.618 0.634,-6.514 -0.92,-0.383 -1.388,0.48 -1.96,0.807 -0.967,-0.007 -1.497,0.424 -2.017,0.865 -0.854,0.135 -1.664,0.115 -2.421,0.346 -0.543,0.165 -1.307,0.424 -1.614,0.634 -0.07,0.048 -0.133,0.1 -0.192,0.156 -0.121,0.068 -0.277,0.156 -0.447,0.253 l 0.004,-0.006 c -0.896,0.445 -1.615,1.022 -2.248,1.73 -0.35,0.392 -0.476,1.012 -1.153,1.095 -0.075,-0.021 -0.09,-0.102 -0.172,-0.116 0.453,-1.377 1.531,-2.281 2.478,-3.17 0.502,-0.471 1.025,-0.883 1.557,-1.268 0.624,-0.453 1.405,-0.769 1.992,-1.259 l -0.019,0.025 1.72,-0.81 0.015,-0.025 C -3.878,0.757 -2.642,0.424 -1.441,0.173 -1.102,0.102 -0.622,-0.081 0,0" /></g><g
           transform="translate(146.9711,488.32294)"
           id="g186"><path
             inkscape:connector-curvature="0"
             id="path188"
             style="fill:#2a6bd3;fill-opacity:1;fill-rule:nonzero;stroke:none"
             d="M 0,0 C 0.599,1.064 -1.471,1.316 -1.268,0.403 -1.194,0.067 -0.482,-0.122 0,0" /></g><g
           transform="translate(124.029,484.17254)"
           id="g190"><path
             inkscape:connector-curvature="0"
             id="path192"
             style="fill:#2a6bd3;fill-opacity:1;fill-rule:nonzero;stroke:none"
             d="M 0,0 C 0.056,-0.424 0.525,-0.808 1.038,-0.692 2.422,1.188 0.952,4.022 0.173,5.649 0.17,5.684 0.164,5.717 0.115,5.707 0.1,5.626 -0.011,5.641 -0.058,5.591 0.038,4.446 0.596,3.021 0.404,1.556 0.329,0.987 -0.067,0.505 0,0" /></g><g
           transform="translate(148.0086,487.45814)"
           id="g194"><path
             inkscape:connector-curvature="0"
             id="path196"
             style="fill:#2a6bd3;fill-opacity:1;fill-rule:nonzero;stroke:none"
             d="M 0,0 C 0.735,0.092 0.283,1.327 -0.634,0.922 -0.829,0.44 -0.334,-0.042 0,0" /></g><g
           transform="translate(149.6226,486.70884)"
           id="g198"><path
             inkscape:connector-curvature="0"
             id="path200"
             style="fill:#2a6bd3;fill-opacity:1;fill-rule:nonzero;stroke:none"
             d="M 0,0 C 0.943,0.152 -0.021,1.545 -0.922,1.095 -1.199,0.439 -0.393,-0.063 0,0" /></g><g
           transform="translate(133.4825,475.00724)"
           id="g202"><path
             inkscape:connector-curvature="0"
             id="path204"
             style="fill:#2a6bd3;fill-opacity:1;fill-rule:nonzero;stroke:none"
             d="M 0,0 C -2.048,1.161 -3.886,2.531 -5.303,4.323 -5.38,4.794 -5.94,5.38 -6.341,4.842 -5.622,3.177 -4.3,1.272 -2.767,0.115 -1.926,-0.52 -0.395,-1.6 0,0" /></g><g
           transform="translate(122.0115,484.80664)"
           id="g206"><path
             inkscape:connector-curvature="0"
             id="path208"
             style="fill:#2a6bd3;fill-opacity:1;fill-rule:nonzero;stroke:none"
             d="M 0,0 C 0.37,-0.807 1.603,-0.476 1.902,0.173 2.008,0.785 2.166,1.384 2.075,2.248 1.792,4.926 0.635,7.878 -0.519,9.915 -1.034,10.825 -1.57,12.1 -2.767,11.875 -4.375,11.572 -2.968,10.072 -2.421,9.396 -1.173,7.853 -0.056,5.745 0.403,3.574 0.707,2.142 0.679,0.944 0,0" /></g><g
           transform="translate(154.234,484.46074)"
           id="g210"><path
             inkscape:connector-curvature="0"
             id="path212"
             style="fill:#2a6bd3;fill-opacity:1;fill-rule:nonzero;stroke:none"
             d="M 0,0 C 0.186,0.866 -1.429,1.519 -1.556,0.749 -1.644,0.219 -0.605,-0.515 0,0" /></g><g
           transform="translate(152.1013,486.01714)"
           id="g214"><path
             inkscape:connector-curvature="0"
             id="path216"
             style="fill:#2a6bd3;fill-opacity:1;fill-rule:nonzero;stroke:none"
             d="M 0,0 C 0.015,0.421 -0.906,0.812 -1.153,0.749 -2.385,0.435 -0.036,-0.975 0,0" /></g><g
           transform="translate(144.8382,484.40304)"
           id="g218"><path
             inkscape:connector-curvature="0"
             id="path220"
             style="fill:#2a6bd3;fill-opacity:1;fill-rule:nonzero;stroke:none"
             d="M 0,0 C 1.49,-1.588 2.419,-3.431 3.228,-5.649 4.023,-6.91 4.609,-8.38 5.88,-9.165 5.67,-8.329 5.014,-7.635 4.611,-6.744 3.124,-3.451 1.772,0.392 -1.499,1.729 -1.201,1.085 -0.541,0.577 0,0" /></g><g
           transform="translate(143.743,489.53334)"
           id="g222"><path
             inkscape:connector-curvature="0"
             id="path224"
             style="fill:#2a6bd3;fill-opacity:1;fill-rule:nonzero;stroke:none"
             d="M 0,0 C 0.058,0.526 -0.482,0.607 -0.865,0.519 -0.954,0.435 -0.915,0.224 -0.922,0.058 -0.679,-0.055 -0.247,-0.224 0,0" /></g><g
           transform="translate(139.4198,490.34034)"
           id="g226"><path
             inkscape:connector-curvature="0"
             id="path228"
             style="fill:#2a6bd3;fill-opacity:1;fill-rule:nonzero;stroke:none"
             d="M 0,0 C 0.062,0.149 0.208,0.214 0.231,0.404 -0.231,1.172 -1.239,-0.146 0,0" /></g><g
           transform="translate(132.7908,491.20504)"
           id="g230"><path
             inkscape:connector-curvature="0"
             id="path232"
             style="fill:#2a6bd3;fill-opacity:1;fill-rule:nonzero;stroke:none"
             d="M 0,0 C -0.102,0.455 -0.415,0.699 -1.038,0.634 -1.001,0.134 -0.516,-0.164 0,0" /></g><g
           transform="translate(142.5325,490.10974)"
           id="g234"><path
             inkscape:connector-curvature="0"
             id="path236"
             style="fill:#2a6bd3;fill-opacity:1;fill-rule:nonzero;stroke:none"
             d="M 0,0 C -0.081,0.417 -1.262,0.588 -1.095,-0.173 -0.841,-0.409 -0.041,-0.456 0,0" /></g><g
           transform="translate(145.357,489.18744)"
           id="g238"><path
             inkscape:connector-curvature="0"
             id="path240"
             style="fill:#2a6bd3;fill-opacity:1;fill-rule:nonzero;stroke:none"
             d="M 0,0 C -0.097,0.445 -0.966,0.656 -1.038,0.058 -0.878,-0.286 -0.163,-0.439 0,0" /></g><g
           transform="translate(129.5051,492.30024)"
           id="g242"><path
             inkscape:connector-curvature="0"
             id="path244"
             style="fill:#2a6bd3;fill-opacity:1;fill-rule:nonzero;stroke:none"
             d="M 0,0 C 0.502,0.949 -1.33,1.093 -1.038,0.173 -0.952,-0.096 -0.436,-0.255 0,0" /></g><g
           transform="translate(130.5427,489.47574)"
           id="g246"><path
             inkscape:connector-curvature="0"
             id="path248"
             style="fill:#2a6bd3;fill-opacity:1;fill-rule:nonzero;stroke:none"
             d="m 0,0 c -0.953,-0.39 -1.984,0.186 -2.594,0.519 0.235,-0.827 1.34,-1.624 2.479,-1.441 C 0.92,-0.756 1.584,0.339 2.018,1.095 1.94,1.133 1.91,1.218 1.902,1.326 0.907,1.512 0.75,0.307 0,0" /></g><g
           transform="translate(130.4851,492.06964)"
           id="g250"><path
             inkscape:connector-curvature="0"
             id="path252"
             style="fill:#2a6bd3;fill-opacity:1;fill-rule:nonzero;stroke:none"
             d="m 0,0 c -0.035,-0.832 -1.118,-1.123 -1.902,-0.807 -0.495,0.2 -0.62,0.893 -0.75,1.326 C -2.384,1.674 -0.049,1.244 0,0 M -1.499,-1.729 C 0.508,-2.083 1.122,-0.496 0.865,1.038 0.552,0.88 0.386,0.857 0.115,1.095 0.073,1.306 0.257,1.416 0.115,1.556 -0.333,2.113 -1.642,2.068 -1.96,1.441 -2.41,1.477 -2.677,1.117 -2.997,0.865 c -0.301,-1.45 0.588,-2.167 1.498,-2.594" /></g><g
           transform="translate(135.5577,479.90684)"
           id="g254"><path
             inkscape:connector-curvature="0"
             id="path256"
             style="fill:#2a6bd3;fill-opacity:1;fill-rule:nonzero;stroke:none"
             d="m 0,0 c -0.14,0.464 -1.153,-0.022 -1.095,-0.634 0.186,-0.083 0.483,-0.055 0.749,-0.058 C -0.196,-0.455 0.086,-0.285 0,0" /></g><g
           transform="translate(169.5672,479.61874)"
           id="g258"><path
             inkscape:connector-curvature="0"
             id="path260"
             style="fill:#2a6bd3;fill-opacity:1;fill-rule:nonzero;stroke:none"
             d="m 0,0 c -1.156,-0.415 -2.249,-0.796 -3.055,-1.556 0.304,-0.434 0.358,-0.986 0.749,-1.269 0.573,-0.413 1.34,-0.086 2.248,0 1.742,0.166 3.658,0.723 4.669,1.096 C 4.244,-1.04 4.115,-0.113 4.093,0.922 4.016,0.98 3.878,0.977 3.862,1.095 3.067,0.931 2.446,0.791 1.729,0.576 1.132,0.397 0.549,0.197 0,0" /></g><g
           transform="translate(162.6499,482.84684)"
           id="g262"><path
             inkscape:connector-curvature="0"
             id="path264"
             style="fill:#2a6bd3;fill-opacity:1;fill-rule:nonzero;stroke:none"
             d="m 0,0 c 0.292,-0.31 0.498,-0.741 0.922,-0.807 0.39,-0.06 0.933,0.114 1.441,0.231 1.5,0.343 3.344,1.141 4.958,1.614 0.57,0.167 1.133,0.144 1.556,0.461 0.319,-0.235 0.734,-0.049 1.211,0 C 10.002,2.109 9.84,3.131 9.569,3.747 8.107,3.79 7.167,3.519 6.053,3.17 3.792,2.463 1.569,1.665 -0.692,1.038 -0.792,0.516 -0.292,0.31 0,0" /></g><g
           transform="translate(171.2388,483.76904)"
           id="g266"><path
             inkscape:connector-curvature="0"
             id="path268"
             style="fill:#2a6bd3;fill-opacity:1;fill-rule:nonzero;stroke:none"
             d="m 0,0 c -0.136,-0.018 -0.107,-0.2 -0.288,-0.173 -1.146,-0.236 -2.129,-0.698 -3.055,-1.038 -1.25,-0.458 -2.553,-0.832 -3.632,-1.498 0.554,-0.847 0.836,-1.91 2.191,-1.614 0.524,0.114 1.101,0.389 1.729,0.576 1.785,0.533 3.484,0.906 4.842,1.499 -0.388,0.51 -0.156,1.46 -0.115,2.19 C 1.176,0.233 0.518,-0.141 0,0" /></g><g
           transform="translate(157.0586,482.03974)"
           id="g270"><path
             inkscape:connector-curvature="0"
             id="path272"
             style="fill:#2a6bd3;fill-opacity:1;fill-rule:nonzero;stroke:none"
             d="M 0,0 C 0.013,0.045 0.002,0.114 0.058,0.115 -0.439,1.305 -1.298,-0.23 0,0" /></g><g
           transform="translate(138.3245,466.76424)"
           id="g274"><path
             inkscape:connector-curvature="0"
             id="path276"
             style="fill:#2a6bd3;fill-opacity:1;fill-rule:nonzero;stroke:none"
             d="m 0,0 c -3.135,2.045 -5.979,4.352 -8.762,6.917 -0.34,0.101 -0.676,0.208 -1.153,0.173 -1.128,0.394 -1.802,1.321 -2.478,2.363 -0.487,0.75 -0.951,1.77 -1.557,2.249 -0.22,0.174 -0.514,0.156 -0.749,0.288 -0.963,0.541 -1.758,1.361 -2.462,2.227 -0.235,0.107 -0.495,0.251 -0.713,0.434 -0.328,0.101 -0.582,0.654 -0.918,0.913 -0.477,0.367 -1.105,0.65 -1.671,1.037 -1.51,1.031 -3.171,2.216 -4.266,3.689 -0.22,0.296 -1.052,1.826 -0.346,2.191 0.887,-0.255 1.561,-0.881 2.168,-1.587 v 0.015 c 0,0 0.183,-0.141 0.771,-0.475 0.122,-0.033 0.255,-0.123 0.387,-0.215 0.098,-0.053 0.202,-0.109 0.316,-0.17 l 0.015,-0.031 c 0.302,-0.15 0.646,-0.266 0.839,-0.477 0.364,0.037 0.545,-0.109 0.75,-0.231 1.607,-0.483 2.663,0.006 2.997,1.269 0.121,4.021 -1.704,6.096 -3.458,8.243 -0.163,0.709 0.491,1.275 1.153,1.383 0.539,0.088 0.959,-0.186 1.441,-0.23 0.44,-0.042 1.292,0.226 2.19,0.288 0.514,0.035 1.074,-0.069 1.441,0 0.111,0.02 0.188,0.122 0.288,0.115 0.466,-0.032 1.185,-0.485 1.557,-0.461 0.271,0.017 0.518,0.273 0.864,0.346 1.024,0.215 2.15,-0.031 2.825,-0.404 4.534,-0.001 8.381,-0.688 12.162,-1.441 0.071,-0.083 0.221,-0.087 0.289,-0.173 6.14,-1.335 10.805,-4.236 15.045,-7.494 1.212,-0.931 2.257,-2.076 3.631,-2.824 3.477,0.255 6.244,1.639 9.511,2.19 1.12,0.19 2.499,0.42 3.344,0 -0.391,-0.262 -0.703,-0.604 -0.808,-1.152 0.344,-0.145 0.182,-0.826 0.404,-1.153 0.302,-0.445 0.914,-0.273 1.153,-0.75 -0.124,-0.106 -0.422,-0.039 -0.634,-0.057 -0.783,-0.402 -0.9,-1.912 -0.173,-2.479 0.328,-0.256 0.934,-0.161 0.98,-0.692 -0.084,-0.108 -0.377,-0.007 -0.461,-0.115 -0.096,-0.192 -0.135,-0.441 -0.231,-0.634 0.203,-0.351 0.088,-0.705 0.173,-1.038 0.228,-0.886 1.085,-1.091 1.614,-1.671 C 37.615,10.091 37.146,9.984 37.065,9.742 37.07,8.585 37.477,7.54 38.045,6.917 38.37,6.56 38.926,6.423 39.14,5.937 38.009,6.08 37.433,3.094 38.102,2.133 38.246,1.926 38.424,1.842 38.581,1.751 46.91,1.748 54.589,0.487 62.055,-2.105 c 5.47,-1.892 10.844,-4.568 16.765,-8.337 0.114,1.122 0.177,2.253 0.177,3.394 0,26.99 -32.632,48.869 -72.886,48.869 -40.096,0 -72.625,-21.708 -72.881,-48.551 4.932,-1.669 9.664,-2.757 13.219,-3.432 2.972,-0.553 5.967,-0.822 9.153,-0.822 4.423,0 9.03,0.494 15.405,1.652 7.14,1.276 23.381,4.427 31.782,6.078 C 2.481,-2.309 2.158,-1.371 1.441,-0.807 1.023,-0.478 0.458,-0.299 0,0" /></g><g
           transform="translate(155.7328,483.36554)"
           id="g278"><path
             inkscape:connector-curvature="0"
             id="path280"
             style="fill:#2a6bd3;fill-opacity:1;fill-rule:nonzero;stroke:none"
             d="M 0,0 C 0.123,0.583 -0.68,0.835 -0.98,0.461 -0.906,-0.01 -0.418,-0.347 0,0" /></g><g
           transform="translate(145.1841,475.64134)"
           id="g282"><path
             inkscape:connector-curvature="0"
             id="path284"
             style="fill:#2a6bd3;fill-opacity:1;fill-rule:nonzero;stroke:none"
             d="m 0,0 c -0.356,0.028 -0.757,0.037 -1.095,0 -1.443,-0.158 -3,-0.719 -4.612,-0.98 -1.659,-0.269 -3.491,-0.45 -5.245,-0.173 -0.463,-0.44 -1.168,-0.638 -1.845,-0.864 0.408,-0.812 1.612,-1.015 2.652,-1.096 1.051,-0.082 2.079,0.141 2.997,0.231 3.598,0.352 6.728,2.017 10.779,1.614 C 4.109,-1.316 4.579,-1.65 5.188,-1.383 4.668,-0.794 3.636,-0.509 2.709,-0.346 1.892,-0.202 0.9,-0.072 0,0" /></g><g
           transform="translate(169.9131,472.35574)"
           id="g286"><path
             inkscape:connector-curvature="0"
             id="path288"
             style="fill:#2a6bd3;fill-opacity:1;fill-rule:nonzero;stroke:none"
             d="M 0,0 C -0.107,-0.35 0.31,-1.344 0.634,-1.787 1.21,-2.575 2.015,-2.277 3.17,-2.421 4.238,-2.554 5.061,-3.008 5.937,-3.055 6.034,-2.722 5.789,-2.479 5.764,-2.133 5.703,-1.273 6.208,-0.401 6.341,0.346 6,0.811 4.858,0.763 3.862,0.807 2.632,0.861 0.256,0.835 0,0" /></g><g
           transform="translate(172.3916,476.90954)"
           id="g290"><path
             inkscape:connector-curvature="0"
             id="path292"
             style="fill:#2a6bd3;fill-opacity:1;fill-rule:nonzero;stroke:none"
             d="m 0,0 c -1.405,-0.307 -2.973,-0.864 -4.266,-1.268 0.142,-0.992 0.717,-1.551 1.326,-2.075 2.017,0.134 4.135,0.169 6.226,0.23 -0.403,0.885 -0.61,1.966 -0.807,3.055 C 1.749,0.356 0.693,0.151 0,0" /></g><g
           transform="translate(147.2015,470.62634)"
           id="g294"><path
             inkscape:connector-curvature="0"
             id="path296"
             style="fill:#2a6bd3;fill-opacity:1;fill-rule:nonzero;stroke:none"
             d="m 0,0 c -0.101,0.533 -0.749,0.663 -1.095,0.288 -0.361,-0.391 -0.245,-1.154 -0.749,-1.268 -0.397,-0.045 -0.888,0.004 -0.98,-0.346 0.088,-0.145 0.225,-0.352 0.403,-0.403 0.291,-0.085 1.071,0.073 1.441,0.23 C -0.357,-1.235 0.083,-0.434 0,0" /></g><g
           transform="translate(148.4122,471.08744)"
           id="g298"><path
             inkscape:connector-curvature="0"
             id="path300"
             style="fill:#2a6bd3;fill-opacity:1;fill-rule:nonzero;stroke:none"
             d="M 0,0 C -0.11,0.101 -0.213,0.21 -0.288,0.346 -1.252,0.464 -0.956,-0.677 -1.095,-1.383 -1.527,-1.797 -2.034,-2.135 -2.536,-2.479 -0.93,-2.867 0.051,-1.651 0,0" /></g><g
           transform="translate(131.1768,474.20024)"
           id="g302"><path
             inkscape:connector-curvature="0"
             id="path304"
             style="fill:#2a6bd3;fill-opacity:1;fill-rule:nonzero;stroke:none"
             d="M 0,0 C -0.306,0.529 -0.844,0.812 -1.268,1.21 -2.099,1.992 -2.816,3.016 -3.459,3.977 -3.941,4.7 -4.409,5.805 -5.303,5.707 -5.505,5.207 -4.845,4.426 -4.554,3.92 -3.59,2.247 -2.434,0.819 -0.98,-0.058 -0.544,-0.08 -0.253,-0.396 0,0" /></g><g
           transform="translate(145.53,470.62634)"
           id="g306"><path
             inkscape:connector-curvature="0"
             id="path308"
             style="fill:#2a6bd3;fill-opacity:1;fill-rule:nonzero;stroke:none"
             d="m 0,0 c -0.681,-0.159 -1.848,-0.388 -2.133,0.288 0.108,0.257 0.489,0.241 0.461,0.634 C -2.073,1.334 -2.53,0.74 -2.652,0.346 -2.591,-0.731 -0.241,-1.44 0,0" /></g><g
           transform="translate(149.392,472.00984)"
           id="g310"><path
             inkscape:connector-curvature="0"
             id="path312"
             style="fill:#2a6bd3;fill-opacity:1;fill-rule:nonzero;stroke:none"
             d="m 0,0 c -0.995,0.038 -0.679,-1.836 -0.922,-2.421 -0.291,-0.697 -0.964,-0.693 -1.384,-1.441 0.859,-0.048 1.997,0.432 2.537,1.21 C 0.732,-1.928 1.14,-0.043 0,0" /></g><g
           transform="translate(145.1265,471.77924)"
           id="g314"><path
             inkscape:connector-curvature="0"
             id="path316"
             style="fill:#2a6bd3;fill-opacity:1;fill-rule:nonzero;stroke:none"
             d="m 0,0 c -0.099,0.132 -0.44,0.021 -0.634,0.058 0.006,-0.237 -0.231,-0.231 -0.173,-0.519 0.3,-0.312 0.582,-0.094 0.865,0 0.429,0.142 1.08,0.136 1.325,0.403 C 0.84,0.21 0.401,0.587 0,0" /></g><g
           transform="translate(141.0338,490.57084)"
           id="g318"><path
             inkscape:connector-curvature="0"
             id="path320"
             style="fill:#2a6bd3;fill-opacity:1;fill-rule:nonzero;stroke:none"
             d="M 0,0 C -0.232,0.209 -0.734,0.111 -0.634,-0.346 -0.416,-0.587 0.108,-0.436 0,0" /></g><g
           transform="translate(147.7781,473.73904)"
           id="g322"><path
             inkscape:connector-curvature="0"
             id="path324"
             style="fill:#2a6bd3;fill-opacity:1;fill-rule:nonzero;stroke:none"
             d="m 0,0 c -0.988,0.247 -2.204,0.279 -3.055,0.115 -2.841,-0.546 -5.471,-1.785 -8.992,-1.671 0.069,-0.864 1.197,-0.959 1.902,-1.038 0.493,-0.055 1.003,-0.055 1.498,0 2.73,0.305 4.998,1.727 7.436,2.19 C -0.764,-0.319 -0.3,-0.546 0,0" /></g><g
           transform="translate(164.5446,456.66694)"
           id="g326"><path
             inkscape:connector-curvature="0"
             id="path328"
             style="fill:#ffffff;fill-opacity:1;fill-rule:nonzero;stroke:none"
             d="M 0,0 C 0.076,0.009 0.152,0.016 0.228,0.025 0.179,0.048 0.128,0.067 0.065,0.067 0.044,0.044 0.021,0.023 0,0" /></g><g
           transform="translate(131.2344,425.14584)"
           id="g330"><path
             inkscape:connector-curvature="0"
             id="path332"
             style="fill:#ffffff;fill-opacity:1;fill-rule:nonzero;stroke:none"
             d="M 0,0 C 0.251,0.037 0.652,-0.075 0.807,0.058 0.603,0.175 0.152,0.12 0,0" /></g><g
           transform="translate(132.2143,426.29874)"
           id="g334"><path
             inkscape:connector-curvature="0"
             id="path336"
             style="fill:#ffffff;fill-opacity:1;fill-rule:nonzero;stroke:none"
             d="M 0,0 C -0.376,-0.027 -0.832,0.025 -1.038,-0.173 -0.652,-0.155 -0.161,-0.242 0,0" /></g><g
           transform="translate(161.2666,441.34364)"
           id="g338"><path
             inkscape:connector-curvature="0"
             id="path340"
             style="fill:#ffffff;fill-opacity:1;fill-rule:nonzero;stroke:none"
             d="M 0,0 C -0.609,0.313 -1.14,0.229 -1.153,-0.576 -0.782,-0.681 -0.051,-0.55 0,0" /></g><g
           transform="translate(162.0159,455.06274)"
           id="g342"><path
             inkscape:connector-curvature="0"
             id="path344"
             style="fill:#ffffff;fill-opacity:1;fill-rule:nonzero;stroke:none"
             d="M 0,0 C 0.019,-0.135 0.059,-0.248 0.173,-0.288 0.372,-0.18 0.562,-0.062 0.576,0.231 0.09,0.644 -0.758,0.353 -0.346,-0.346 -0.264,-0.197 -0.211,-0.02 0,0" /></g><g
           transform="translate(161.6701,443.13054)"
           id="g346"><path
             inkscape:connector-curvature="0"
             id="path348"
             style="fill:#ffffff;fill-opacity:1;fill-rule:nonzero;stroke:none"
             d="M 0,0 C 0.375,-0.26 1.096,-0.022 1.153,0.403 1.068,0.55 0.783,0.495 0.749,0.692 0.805,1.021 1.292,0.917 1.556,1.038 1.565,1.221 1.687,1.291 1.672,1.499 1.371,1.544 1.254,1.772 0.922,1.787 0.571,1.235 0.313,0.59 0,0" /></g><g
           transform="translate(164.7252,450.27824)"
           id="g350"><path
             inkscape:connector-curvature="0"
             id="path352"
             style="fill:#ffffff;fill-opacity:1;fill-rule:nonzero;stroke:none"
             d="m 0,0 c -0.124,-0.098 -0.253,-0.396 -0.115,-0.576 0.387,-0.052 1.099,0.047 1.037,0.634 -0.268,0 -0.41,0.128 -0.576,0.23 C 0.248,0.393 0.393,0.579 0.403,0.75 0.056,1.282 -0.729,1.079 -0.692,0.346 -0.423,0.269 -0.034,0.312 0,0" /></g><g
           transform="translate(145.8732,451.95004)"
           id="g354"><path
             inkscape:connector-curvature="0"
             id="path356"
             style="fill:#ffffff;fill-opacity:1;fill-rule:nonzero;stroke:none"
             d="M 0,0 C 1.18,-0.571 2.133,-1.91 3.862,-1.556 4.613,-0.594 3.237,0.511 3.055,1.21 2.896,1.824 2.946,2.385 2.986,2.954 2.767,2.92 2.547,2.886 2.328,2.852 2.544,2.488 2.663,2.182 2.536,1.614 2.094,1.968 1.654,2.324 1.214,2.68 1.078,2.659 0.941,2.638 0.805,2.617 1.112,2.319 1.428,2.031 1.729,1.729 2.227,1.231 2.951,0.776 2.997,0 2.151,0.086 1.073,0.677 0.461,1.21 0.092,1.532 -0.296,1.943 -0.678,2.385 -0.791,2.368 -0.902,2.35 -1.015,2.332 -0.734,1.956 -0.452,1.582 -0.173,1.21 -0.589,1.53 -0.992,1.887 -1.384,2.273 -1.645,2.231 -1.905,2.19 -2.165,2.148 -1.471,1.404 -0.711,0.727 0,0" /></g><g
           transform="translate(162.63488,445.37864)"
           id="g358"><path
             inkscape:connector-curvature="0"
             id="path360"
             style="fill:#ffffff;fill-opacity:1;fill-rule:nonzero;stroke:none"
             d="M 0,0 C -0.124,-0.049 -0.093,-0.253 -0.173,-0.346 -0.446,-0.35 -0.74,-0.375 -0.807,-0.173 -0.563,0.282 0.026,0.088 0.461,0.058 0.4,-0.319 0.236,-0.037 0,0 m -0.865,-2.075 c -0.144,-0.137 -0.464,-0.129 -0.576,0.057 -0.069,0.319 0.437,0.063 0.519,0.231 0.125,0.01 0.026,-0.204 0.057,-0.288 m -1.498,-1.441 c -0.025,0.12 0.039,0.152 0.057,0.23 0.093,0.017 0.1,-0.054 0.173,-0.057 0.018,-0.152 -0.08,-0.189 -0.23,-0.173 M -8.07,-8.243 c -0.239,-0.015 -0.225,0.076 -0.403,0 -0.338,-0.211 -0.341,-0.688 -0.346,-1.095 -0.417,-0.14 -0.771,-0.344 -1.211,-0.461 -0.083,0.128 -0.145,0.278 -0.115,0.518 0.207,0.043 0.291,0.209 0.576,0.173 0.059,0.076 0.057,0.213 0.116,0.289 0.044,0.294 -0.353,0.146 -0.404,0.345 0.268,0.367 0.961,0.307 1.153,0.75 0.333,-0.026 0.591,0.024 0.865,0.058 0.058,-0.328 -0.191,-0.348 -0.231,-0.577 m -4.323,-0.922 c -0.012,0.454 0.227,0.656 0.346,0.98 0.093,0.016 0.099,-0.055 0.172,-0.058 -0.016,-0.464 -0.075,-0.885 -0.518,-0.922 m -13.258,-11.587 c -3.486,-1.406 -8.279,-1.865 -12.797,-2.19 -0.246,0.215 -0.494,0.429 -0.404,0.98 5.016,0.614 10.408,0.852 14.411,2.479 h 0.116 c 0.147,-0.749 -0.784,-1.05 -1.326,-1.269 m -9.857,2.71 c 2.167,0.111 4.326,0.229 6.283,0.634 0.605,0.125 1.142,0.439 1.556,0.461 0.123,0.006 0.447,0.035 0.461,-0.231 0.022,-0.404 -1.083,-0.561 -1.325,-0.634 -1.504,-0.451 -3.087,-0.92 -4.669,-1.21 2.444,-0.004 4.61,1.076 6.744,1.383 -0.327,-0.966 -1.465,-1.159 -2.594,-1.499 -1.085,-0.325 -2.536,-0.72 -3.92,-0.864 1.922,-0.035 3.998,0.274 5.764,0.749 0.93,0.25 1.788,0.688 2.652,0.749 -0.09,-0.462 -0.677,-0.671 -1.095,-0.864 -3.367,-1.552 -8.583,-1.921 -12.97,-2.306 0.717,1.531 2.389,2.108 3.113,3.632 m 0.519,1.268 c -0.006,0.33 0.301,0.696 0.518,0.98 1.945,0.123 4.58,0.297 6.168,0.576 0.191,0.034 0.348,-0.157 0.346,-0.346 -0.005,-0.423 -0.894,-0.547 -1.326,-0.634 -1.027,-0.205 -1.827,-0.3 -2.94,-0.346 1.655,-0.271 3.245,0.33 4.67,0.289 -0.259,-0.587 -1.187,-0.505 -1.672,-0.865 -1.895,-0.356 -4.49,-0.486 -6.226,-0.634 0.036,0.445 0.17,0.791 0.462,0.98 m 2.766,2.997 h 2.537 c 0.188,0.2 0.609,0.217 0.634,-0.173 -0.588,-0.546 -1.866,-0.401 -2.825,-0.576 0.872,-0.204 2.277,0.125 3.055,-0.173 -1.075,-0.879 -3.728,-0.728 -5.418,-0.922 0.404,0.883 1.263,1.311 2.017,1.844 m 2.594,1.095 c -0.249,-0.478 -1.068,-0.943 -1.671,-0.691 0.395,0.325 1.025,0.998 1.671,0.691 m 15.679,11.817 c 0.976,-0.542 2.136,-0.9 3.574,-0.98 -0.753,-1.658 -3.496,-0.678 -3.574,0.98 m -0.403,0.98 c 0.451,0.333 0.928,-0.137 1.441,-0.173 0.997,-0.068 2.003,0.373 2.94,0.461 0.051,0.026 0.103,0.051 0.115,0.116 0.093,0.016 0.099,-0.055 0.173,-0.058 0.021,-2.396 -4.017,-2.064 -4.669,-0.346 m 2.017,0.922 c 0.792,0.225 1.399,0.815 1.903,1.326 h 0.115 c 0.5,-0.302 0.27,-1.14 0.058,-1.441 -0.547,-0.771 -2.15,-0.732 -2.767,-0.115 0.113,0.346 0.457,0.164 0.691,0.23 m 11.587,7.552 c 0.116,0.1 0.492,0.109 0.403,-0.173 C -0.475,8.304 -0.76,8.385 -0.749,8.589 m 0.403,2.421 c -0.281,0.025 -0.401,0.22 -0.586,0.304 -0.076,-0.009 -0.152,-0.017 -0.228,-0.026 -0.252,-0.28 -0.504,-0.56 -0.915,-0.682 -0.239,-0.049 -0.709,0.133 -0.692,-0.173 0.055,-0.329 0.572,-0.196 0.634,-0.518 -0.011,-0.403 -0.597,-0.503 -0.346,-0.98 0.346,-0.226 0.339,0.336 0.634,0.346 0.23,-0.252 0.491,-0.47 0.807,-0.634 -0.2,-0.761 -0.675,-1.246 -0.922,-1.96 0.492,-0.174 1.078,0.029 1.153,0.461 0.052,0.34 -0.485,0.091 -0.404,0.461 0.495,-0.014 0.731,0.23 1.038,0.403 C -0.104,7.831 0.022,7.707 0.058,7.494 -0.15,7.144 -0.584,7.021 -0.519,6.398 -0.303,6.249 0.201,6.388 0.288,6.11 0.255,5.778 0.036,5.632 0.058,5.246 0.097,5.016 0.479,5.129 0.461,4.842 0.266,4.519 0.139,4.127 -0.058,3.804 -0.028,3.565 0.269,3.593 0.288,3.343 0.083,3.068 0.124,2.547 -0.288,2.479 -0.558,2.42 -0.48,2.71 -0.749,2.652 -0.998,2.439 -1.008,1.988 -1.326,1.844 c -0.139,0.265 -0.348,0.459 -0.576,0.635 0.073,0.214 0.543,0.032 0.691,0.173 0.235,0.437 0.739,0.606 0.98,1.037 C -0.44,3.826 -0.615,3.997 -1.038,3.92 -1.098,3.585 -1.526,3.664 -1.729,3.459 -1.944,3.242 -1.957,2.801 -2.133,2.479 -2.302,2.167 -2.67,1.983 -2.594,1.614 -2.397,1.515 -2.237,1.677 -2.018,1.556 -1.909,1.416 -2.016,1.059 -1.845,0.98 -1.106,0.914 -1.019,1.499 -0.634,1.787 -0.461,1.512 -0.708,0.726 -0.98,0.519 -1.309,0.44 -1.328,0.67 -1.614,0.634 -1.735,0.37 -2.027,0.279 -1.96,-0.173 c 0.205,-0.173 0.518,0.108 0.634,-0.115 -0.214,-0.373 -0.229,-0.485 -0.057,-0.923 -0.212,-0.845 -1,-1.113 -1.269,-1.902 -0.643,0.106 -0.714,-0.362 -0.864,-0.749 0.232,-0.184 0.643,0.153 0.807,-0.115 -0.188,-0.419 -0.567,-0.893 -1.038,-0.692 -0.238,-0.264 -0.241,-0.547 -0.519,-0.692 -0.145,-0.076 -0.069,0.092 -0.23,0.058 -0.389,-0.083 -0.504,-0.089 -0.865,0.058 -0.067,-0.106 -0.15,-0.196 -0.23,-0.289 L -5.707,-5.88 c -0.031,-0.561 -0.65,-0.505 -1.037,-0.288 -0.177,-0.188 -0.315,-0.415 -0.404,-0.691 0.025,-0.226 0.39,-0.111 0.346,-0.404 -0.535,-0.967 -0.884,0.447 -1.671,0.288 -0.223,-0.162 -0.211,-0.558 -0.519,-0.634 -0.245,0.043 -0.307,0.269 -0.634,0.231 -0.402,-0.298 -0.638,-2.143 -1.441,-1.211 0.308,0.573 0.731,1.082 0.576,1.96 -0.278,0.009 -0.27,-0.268 -0.634,-0.173 -0.017,0.118 -0.156,0.113 -0.173,0.231 0.087,0.335 0.138,0.708 0.403,0.864 0.49,0.024 1.44,-0.208 1.384,0.519 -0.077,0.25 -0.505,0.149 -0.692,0.288 -0.124,-0.183 -0.2,-0.414 -0.461,-0.461 -0.358,0.826 0.661,0.756 0.749,1.326 0.037,0.267 -0.285,0.176 -0.23,0.461 0.318,0.95 0.446,2.09 1.441,2.363 0.24,3.57 -0.193,7.242 -0.749,10.376 -0.225,0.286 -0.411,0.61 -0.604,0.928 -0.492,-0.073 -0.985,-0.141 -1.476,-0.214 0.197,-0.295 0.378,-0.606 0.523,-0.944 0.249,-0.579 0.259,-1.27 0.519,-1.787 0.116,-0.231 0.451,-0.379 0.519,-0.634 C -9.843,6.028 -9.975,5.198 -10.03,4.842 -10.22,3.6 -11.025,1.97 -12.047,1.499 c -1.064,-0.49 -2.532,-0.08 -3.286,-0.865 0.535,-1.694 1.575,-2.883 2.997,-3.689 0.388,-0.054 0.876,-0.008 1.038,-0.288 -0.361,-0.448 -1.042,-0.814 -1.672,-1.038 -0.895,-0.318 -2.513,-0.482 -3.458,0.058 -0.353,0.201 -0.706,0.678 -1.096,1.037 -3.719,3.433 -7.804,6.009 -12.623,8.186 -0.714,0.322 -1.886,1.061 -2.594,0.518 -0.075,-1.298 0.752,-1.944 1.095,-2.997 0.218,-0.67 0.451,-1.435 0.576,-2.191 0.099,-0.595 0.034,-1.236 0.116,-1.844 0.138,-1.031 0.484,-2.403 0.691,-3.401 0.152,-0.732 0.204,-1.53 0.404,-2.248 0.338,-1.212 1.162,-2.461 0.634,-3.977 -0.474,-0.986 -1.521,-1.303 -2.363,-1.845 -1.092,-0.702 -2.212,-1.557 -2.94,-2.479 -0.394,-0.498 -0.563,-1.09 -0.98,-1.787 -0.667,-1.112 -1.597,-2.102 -2.479,-2.997 -0.443,-0.45 -0.886,-0.94 -1.383,-1.326 -0.473,-0.367 -1.216,-0.604 -1.326,-1.326 0.774,-0.509 2.197,-0.12 3.574,-0.057 3.7,0.168 7.384,0.561 10.376,1.21 0.173,0.115 0.353,0.223 0.691,0.173 0.635,0.249 1.28,0.488 2.018,0.634 2.318,0.905 3.985,2.216 5.879,3.805 1.796,1.506 2.985,3.765 4.842,4.899 0.084,0.051 0.252,0.139 0.346,0.173 0.919,0.338 1.664,0.406 2.479,0.634 1.309,0.367 2.428,1.146 3.516,1.845 1.087,0.698 2.212,1.449 3.206,2.264 l 0.179,0.147 c 3.115,2.518 5.845,6.675 7.798,10.674 0.695,1.423 1.351,2.943 1.845,4.381 0.357,1.043 0.511,2.142 0.807,3.286 0.079,0.308 0.153,0.666 0.223,1.043 C 4.953,11.94 2.817,11.731 0.675,11.492 0.512,11.19 0.028,10.976 -0.346,11.01" /></g><g
           transform="translate(126.623,478.11994)"
           id="g362"><path
             inkscape:connector-curvature="0"
             id="path364"
             style="fill:#ffffff;fill-opacity:1;fill-rule:nonzero;stroke:none"
             d="M 0,0 C -0.292,0.506 -0.951,1.287 -0.749,1.787 0.144,1.886 0.612,0.781 1.095,0.058 1.738,-0.904 2.455,-1.928 3.286,-2.709 3.71,-3.108 4.248,-3.39 4.554,-3.92 4.301,-4.316 4.01,-4 3.574,-3.977 2.12,-3.101 0.964,-1.672 0,0 M 0.98,-3.343 C -0.116,-2.556 -0.836,-1.054 -1.614,0.346 -1.932,0.917 -2.432,1.387 -2.421,1.96 -1.265,2.163 -0.955,0.842 -0.461,0 0.041,-0.857 0.692,-1.829 1.383,-2.536 1.744,-2.905 2.26,-3.199 2.248,-3.747 1.874,-3.908 1.269,-3.551 0.98,-3.343 M 7.84,1.153 C 7.782,1.765 8.795,2.251 8.935,1.787 9.021,1.502 8.739,1.332 8.589,1.095 8.323,1.098 8.025,1.07 7.84,1.153 m -13.528,2.946 -0.014,0.025 -1.72,0.81 0.019,-0.025 c -0.588,0.49 -1.368,0.806 -1.993,1.259 -0.531,0.385 -1.055,0.797 -1.556,1.268 -0.947,0.889 -2.025,1.793 -2.479,3.17 0.082,0.014 0.097,0.095 0.173,0.116 0.677,-0.083 0.802,-0.703 1.153,-1.096 0.633,-0.707 1.351,-1.284 2.248,-1.729 l -0.005,0.006 c 0.17,-0.097 0.326,-0.185 0.448,-0.253 0.059,-0.056 0.121,-0.109 0.191,-0.156 0.308,-0.21 1.071,-0.469 1.614,-0.634 0.757,-0.231 1.568,-0.211 2.421,-0.346 0.52,-0.441 1.05,-0.872 2.018,-0.865 0.571,-0.327 1.04,-1.19 1.959,-0.807 1.598,1.896 0.129,4.889 -0.634,6.514 -0.289,0.617 -0.527,1.265 -0.864,1.787 -0.347,0.535 -0.775,1.021 -1.095,1.556 -0.333,0.554 -0.73,1.188 -0.635,1.845 0.414,-0.01 0.482,-0.364 0.75,-0.519 1.268,-2.428 3.71,-4.461 4.208,-7.551 C 0.552,8.268 0.367,7.765 0.692,7.667 1.593,9.048 0.013,10.389 -0.115,11.471 0.405,11.314 0.725,10.761 1.153,10.318 1.551,9.906 2.13,9.484 2.363,9.05 2.991,7.885 1.637,7.041 1.845,5.649 1.334,5.411 1.472,4.673 1.038,4.381 0.627,4.105 0.289,4.342 -0.288,4.266 0.004,3.569 1.145,4.099 1.614,4.266 2.233,3.909 2.516,3.283 3.228,3.228 3.504,3.207 3.799,3.435 4.093,3.401 4.842,3.316 5.234,1.899 6.053,1.845 6.617,1.752 7.685,1.725 7.609,0.807 7.886,0.546 8.435,0.557 8.992,0.576 c 0.899,0.382 1.592,0.995 1.73,2.018 0.208,1.549 -0.425,2.439 -0.577,3.804 -0.063,0.567 0.084,1.148 0,1.614 -0.17,0.952 -1.124,1.474 -1.614,2.249 -0.254,0.401 -0.236,0.846 -0.403,1.21 -0.15,0.325 -0.455,0.445 -0.519,0.807 0.871,0.145 1.18,-0.673 1.729,-1.153 0.749,-0.655 2.386,-1.068 2.421,-2.19 C 11.768,8.66 11.571,8.469 11.471,8.185 10.953,6.721 11.663,4.762 11.874,3.401 12.158,1.58 11.561,-0.029 10.433,-0.346 8.087,-1.005 5.027,0.205 4.266,2.018 4.138,2.32 4.288,2.55 3.977,2.709 3.841,2.4 3.419,2.49 3.055,2.536 2.879,2.143 3.201,1.868 3.17,1.441 c 1.561,-1.898 3.521,-3.397 7.09,-3.286 0.43,0.422 1.273,0.579 1.384,-0.23 C 11.287,-3.289 8.959,-3.39 7.609,-2.94 6.127,-2.445 3.983,-1.064 2.882,0.058 2.055,0.9 1.515,1.858 2.248,2.767 1.693,3.918 0.241,3.069 -0.749,2.94 -1.371,2.859 -1.852,3.042 -2.191,3.113 c -1.2,0.251 -2.436,0.584 -3.497,0.986 m 3.036,7.545 c 0.047,0.05 0.158,0.034 0.173,0.115 0.049,0.011 0.055,-0.022 0.058,-0.057 0.779,-1.627 2.249,-4.462 0.865,-6.341 -0.513,-0.116 -0.982,0.268 -1.038,0.692 -0.067,0.504 0.329,0.986 0.403,1.556 0.193,1.465 -0.365,2.89 -0.461,4.035 m -4.38,4.438 c -0.547,0.676 -1.954,2.176 -0.346,2.479 1.197,0.225 1.732,-1.05 2.248,-1.96 1.154,-2.037 2.311,-4.988 2.594,-7.666 C -2.445,8.071 -2.604,7.471 -2.709,6.86 -3.008,6.21 -4.241,5.879 -4.611,6.687 c 0.679,0.944 0.706,2.142 0.403,3.574 -0.46,2.171 -1.577,4.279 -2.824,5.821 m 7.897,-1.268 c 0.32,0.253 0.587,0.612 1.037,0.577 0.318,0.626 1.627,0.672 2.075,0.115 0.142,-0.141 -0.042,-0.25 0,-0.461 C 4.248,14.807 4.414,14.83 4.727,14.987 4.984,13.454 4.37,11.867 2.363,12.22 1.453,12.648 0.564,13.364 0.865,14.814 M 5.822,12.682 C 5.83,12.574 5.86,12.489 5.937,12.451 5.504,11.695 4.84,10.6 3.804,10.433 2.666,10.251 1.56,11.048 1.326,11.875 1.935,11.541 2.967,10.966 3.92,11.356 c 0.75,0.306 0.907,1.511 1.902,1.326 m 0.346,0.403 C 5.651,12.921 5.167,13.219 5.13,13.719 5.753,13.785 6.066,13.54 6.168,13.085 m 6.859,-0.461 c -0.022,-0.189 -0.168,-0.254 -0.23,-0.404 -1.239,-0.145 -0.231,1.172 0.23,0.404 m 1.384,-0.173 c 0.108,-0.436 -0.416,-0.587 -0.634,-0.346 -0.101,0.457 0.402,0.555 0.634,0.346 M 15.91,11.99 c -0.042,-0.457 -0.842,-0.409 -1.096,-0.173 -0.167,0.76 1.014,0.59 1.096,0.173 m 0.345,-0.058 c 0.383,0.088 0.923,0.007 0.865,-0.519 -0.247,-0.224 -0.679,-0.055 -0.922,0.058 0.007,0.166 -0.032,0.377 0.057,0.461 m 2.479,-0.864 c -0.163,-0.439 -0.878,-0.287 -1.038,0.057 0.073,0.599 0.941,0.388 1.038,-0.057 m 4.093,-11.529 c 0.402,-0.891 1.058,-1.585 1.268,-2.421 -1.27,0.786 -1.857,2.255 -2.652,3.516 -0.809,2.218 -1.738,4.061 -3.228,5.649 -0.541,0.578 -1.201,1.085 -1.498,1.729 3.27,-1.337 4.622,-5.18 6.11,-8.473 m -2.479,10.664 c -0.482,-0.122 -1.194,0.067 -1.268,0.403 -0.202,0.913 1.867,0.661 1.268,-0.403 m 0.404,0.058 c 0.917,0.404 1.369,-0.83 0.634,-0.923 -0.334,-0.042 -0.829,0.44 -0.634,0.923 M 22.077,9.684 C 22.978,10.134 23.942,8.74 23,8.589 22.607,8.526 21.8,9.028 22.077,9.684 m 2.248,-1.037 c 0.248,0.063 1.169,-0.328 1.153,-0.75 -0.036,-0.975 -2.385,0.436 -1.153,0.75 M 27.611,6.341 C 27.006,5.825 25.967,6.56 26.055,7.09 26.182,7.86 27.797,7.207 27.611,6.341 M 4.093,-2.997 C 2.56,-1.84 1.238,0.065 0.519,1.729 0.92,2.268 1.48,1.682 1.556,1.211 2.973,-0.581 4.812,-1.951 6.86,-3.113 6.464,-4.713 4.934,-3.632 4.093,-2.997 m 18.1,-0.75 c -4.052,0.404 -7.182,-1.262 -10.78,-1.614 -0.917,-0.09 -1.945,-0.312 -2.997,-0.23 -1.04,0.08 -2.244,0.284 -2.652,1.095 0.677,0.226 1.382,0.425 1.845,0.865 1.754,-0.278 3.586,-0.096 5.245,0.172 1.612,0.261 3.169,0.823 4.612,0.98 0.338,0.037 0.739,0.029 1.095,0 0.9,-0.071 1.892,-0.201 2.709,-0.345 0.927,-0.164 1.959,-0.448 2.479,-1.038 -0.609,-0.266 -1.079,0.068 -1.556,0.115 M 23,-8.762 c -0.54,-0.779 -1.678,-1.258 -2.537,-1.21 0.42,0.748 1.093,0.744 1.384,1.441 0.243,0.584 -0.073,2.459 0.922,2.421 1.14,-0.043 0.732,-1.929 0.231,-2.652 m -3.747,-0.749 c 0.502,0.343 1.01,0.681 1.441,1.095 0.139,0.707 -0.156,1.847 0.807,1.729 0.075,-0.136 0.178,-0.244 0.288,-0.346 C 21.84,-8.684 20.86,-9.9 19.253,-9.511 m -1.095,0.288 c -0.178,0.052 -0.315,0.259 -0.404,0.404 0.092,0.349 0.583,0.3 0.98,0.345 0.504,0.115 0.389,0.878 0.749,1.269 0.346,0.375 0.994,0.244 1.096,-0.289 0.082,-0.433 -0.357,-1.235 -0.98,-1.498 -0.371,-0.157 -1.151,-0.315 -1.441,-0.231 m -1.903,2.075 c 0.122,0.394 0.579,0.988 0.98,0.577 0.028,-0.393 -0.353,-0.377 -0.461,-0.634 0.285,-0.677 1.452,-0.448 2.133,-0.289 -0.241,-1.44 -2.591,-0.73 -2.652,0.346 m 3.632,0.75 c -0.245,-0.268 -0.897,-0.261 -1.326,-0.404 -0.282,-0.093 -0.565,-0.312 -0.865,0 -0.057,0.288 0.179,0.282 0.173,0.519 0.194,-0.037 0.536,0.074 0.635,-0.058 0.401,0.587 0.839,0.21 1.383,-0.057 m -7.378,-0.577 c -0.496,-0.055 -1.006,-0.055 -1.499,0 -0.705,0.08 -1.833,0.174 -1.902,1.038 3.521,-0.114 6.151,1.125 8.992,1.671 0.852,0.164 2.067,0.132 3.055,-0.115 -0.3,-0.546 -0.764,-0.319 -1.211,-0.403 -2.438,-0.464 -4.706,-1.885 -7.435,-2.191 M 29.11,5.246 c -0.418,-0.347 -0.906,-0.01 -0.98,0.461 0.299,0.374 1.103,0.122 0.98,-0.461 M 30.493,4.035 C 30.437,4.033 30.448,3.965 30.436,3.92 29.138,3.69 29.996,5.225 30.493,4.035 m 11.586,3.862 c 1.115,0.349 2.055,0.62 3.517,0.577 0.271,-0.616 0.433,-1.638 0.519,-2.249 -0.478,-0.048 -0.892,-0.235 -1.211,0 C 44.481,5.909 43.918,5.932 43.348,5.764 41.734,5.291 39.89,4.494 38.39,4.15 37.882,4.034 37.339,3.859 36.949,3.92 c -0.424,0.065 -0.63,0.497 -0.922,0.807 -0.292,0.31 -0.792,0.516 -0.692,1.037 2.26,0.628 4.484,1.426 6.744,2.133 M 46.403,3.401 C 45.045,2.808 43.346,2.435 41.561,1.902 40.933,1.715 40.356,1.44 39.831,1.326 38.476,1.03 38.195,2.093 37.641,2.94 c 1.079,0.666 2.381,1.04 3.631,1.499 0.927,0.339 1.909,0.801 3.056,1.037 0.18,-0.027 0.152,0.155 0.288,0.173 0.518,-0.141 1.175,0.233 1.672,-0.058 -0.041,-0.73 -0.273,-1.68 0.115,-2.19 m 0.403,-0.807 c 0.016,-0.118 0.154,-0.115 0.231,-0.173 0.022,-1.035 0.151,-1.962 0.519,-2.652 -1.011,-0.372 -2.927,-0.93 -4.669,-1.095 -0.909,-0.086 -1.676,-0.413 -2.249,0 -0.391,0.283 -0.444,0.835 -0.749,1.268 0.807,0.761 1.899,1.142 3.055,1.557 0.549,0.197 1.132,0.397 1.729,0.576 0.717,0.215 1.338,0.355 2.133,0.519 m 1.441,-3.862 c 0.198,-1.09 0.405,-2.17 0.807,-3.055 -2.09,-0.062 -4.208,-0.096 -6.225,-0.231 -0.609,0.525 -1.184,1.083 -1.326,2.075 1.293,0.405 2.861,0.961 4.266,1.269 0.692,0.151 1.748,0.356 2.478,-0.058 m 0.807,-6.629 c 0.025,-0.347 0.27,-0.589 0.173,-0.922 -0.876,0.047 -1.699,0.501 -2.767,0.634 -1.155,0.143 -1.96,-0.154 -2.536,0.634 -0.324,0.443 -0.741,1.437 -0.634,1.787 0.256,0.835 2.632,0.861 3.862,0.807 0.996,-0.044 2.138,0.004 2.479,-0.461 -0.133,-0.748 -0.638,-1.62 -0.577,-2.479 m -34.47,-5.015 c -0.152,0.58 -0.196,1.406 0.634,1.21 0.262,-0.333 0.203,-0.706 0.288,-1.095 0.115,-0.528 0.26,-1.032 0.412,-1.531 0.965,0.19 1.784,0.352 2.409,0.477 -0.487,0.179 -0.943,0.369 -1.322,0.593 -0.269,0.159 -0.821,0.549 -0.98,0.749 -0.286,0.362 -0.405,1.11 -0.807,1.269 -0.803,0.317 -1.144,-0.601 -1.672,-0.635 -0.377,-0.023 -0.94,0.422 -1.383,0.692 -2.695,1.64 -4.886,3.446 -7.09,5.361 -0.361,0.314 -0.89,0.604 -0.98,1.153 0.901,0.647 1.702,-0.479 2.363,-0.807 1.71,0.138 2.19,-1.435 3.516,-1.787 1.367,-0.363 2.85,0.075 4.151,0.173 0.708,-0.31 1.097,-0.939 2.017,-1.038 0.192,-0.364 0.566,-0.548 0.634,-1.037 1.438,0.106 2.234,-1.279 3.343,-1.384 0.338,-0.031 0.609,0.191 0.923,0.058 0.363,-0.154 0.769,-1.193 1.095,-1.556 0.288,-0.321 0.593,-0.597 0.908,-0.851 0.185,0.037 0.37,0.073 0.555,0.109 -0.715,0.57 -1.349,1.269 -1.751,2.067 -0.007,0.104 0.07,0.122 0.057,0.231 h 0.116 c 0.605,-0.198 0.741,-0.77 1.152,-1.153 0.384,-0.356 0.821,-0.678 1.278,-0.981 0.145,0.028 0.29,0.056 0.435,0.084 -0.787,0.494 -1.696,0.997 -2.174,1.646 -0.149,0.203 -0.335,0.533 -0.173,0.865 0.629,-0.138 0.886,-0.77 1.326,-1.153 0.522,-0.454 1.225,-0.838 1.948,-1.18 0.158,0.03 0.315,0.061 0.473,0.091 -0.464,0.218 -0.948,0.43 -1.383,0.686 -0.608,0.357 -1.371,0.78 -1.384,1.556 1.669,-0.671 3.444,-1.236 5.224,-1.795 0.155,0.027 0.311,0.055 0.466,0.082 -0.319,0.115 -0.69,0.177 -1.02,0.272 -0.596,0.171 -1.2,0.404 -1.787,0.634 -1.166,0.456 -2.638,0.59 -3.171,1.672 0.83,0.123 1.605,-0.475 2.479,-0.692 0.897,-0.223 1.818,-0.427 2.824,-0.519 -1.106,0.407 -2.473,0.594 -3.631,0.98 -0.492,0.164 -1.177,0.49 -1.211,1.038 0.533,0.114 1.028,-0.262 1.557,-0.346 2.206,-0.351 4.658,-0.444 6.629,-1.095 -0.473,0.551 -1.265,0.42 -2.018,0.576 -0.177,0.037 -0.281,0.177 -0.461,0.231 -1.672,0.497 -3.851,0.072 -5.188,0.922 0.156,0.438 0.569,0.187 0.865,0.173 1.653,-0.079 3.796,0.046 5.303,-0.231 0.893,-0.164 1.675,-0.583 2.363,-0.461 -2.059,1.088 -5.476,0.507 -8.07,1.095 0.467,0.533 1.561,0.438 2.306,0.692 -0.974,0.222 -2.584,-0.693 -3.055,0.346 0.257,0.471 0.677,0.167 1.095,0.173 0.894,0.012 1.917,0.321 2.94,0.403 3.336,0.27 7.029,0.108 9.05,-1.383 0.218,-0.406 0.675,-0.995 0.288,-1.499 -1.162,0.375 -2.009,1.066 -3.228,1.384 0.227,-0.354 0.905,-0.494 1.441,-0.75 0.86,-0.409 1.862,-0.986 1.729,-2.075 -0.386,-0.085 -0.704,0.229 -1.037,0.404 -0.938,0.492 -2.07,1.029 -3.228,1.153 0.227,-0.324 0.697,-0.36 1.037,-0.462 0.988,-0.296 2.11,-0.717 2.803,-1.462 2.655,0.347 5.321,0.613 7.989,0.776 -0.045,0.296 -0.083,0.593 -0.128,0.859 0.085,0.05 0.183,0.087 0.173,0.231 0.685,0.131 1.788,-0.155 2.825,-0.404 0.544,-0.13 0.979,-0.296 1.327,-0.524 0.418,0.006 0.838,0.028 1.255,0.028 0.01,0 0.02,0 0.03,0 -0.157,0.09 -0.336,0.175 -0.479,0.381 -0.67,0.962 -0.094,3.947 1.037,3.805 -0.214,0.485 -0.77,0.622 -1.095,0.979 -0.567,0.623 -0.975,1.668 -0.98,2.825 0.081,0.242 0.551,0.35 0.404,0.634 -0.53,0.58 -1.387,0.786 -1.614,1.672 -0.086,0.332 0.029,0.686 -0.173,1.037 0.095,0.193 0.135,0.442 0.23,0.634 0.084,0.109 0.377,0.007 0.461,0.116 -0.045,0.53 -0.651,0.436 -0.98,0.691 -0.726,0.567 -0.609,2.078 0.173,2.479 0.212,0.019 0.511,-0.049 0.635,0.058 -0.24,0.476 -0.852,0.305 -1.153,0.749 -0.223,0.327 -0.06,1.008 -0.404,1.153 0.105,0.548 0.417,0.89 0.807,1.153 -0.845,0.419 -2.223,0.189 -3.343,0 -3.267,-0.552 -6.034,-1.936 -9.511,-2.191 -1.375,0.748 -2.42,1.894 -3.632,2.825 -4.24,3.257 -8.905,6.158 -15.045,7.493 -0.068,0.086 -0.217,0.09 -0.288,0.173 C 11.551,17.815 7.704,18.503 3.17,18.504 2.496,18.877 1.37,19.122 0.346,18.907 0,18.834 -0.248,18.579 -0.519,18.561 c -0.372,-0.024 -1.09,0.429 -1.556,0.461 -0.1,0.007 -0.177,-0.094 -0.288,-0.115 -0.367,-0.069 -0.927,0.035 -1.441,0 -0.898,-0.061 -1.751,-0.329 -2.191,-0.288 -0.482,0.045 -0.902,0.319 -1.441,0.23 -0.661,-0.108 -1.316,-0.673 -1.153,-1.383 1.754,-2.146 3.58,-4.222 3.459,-8.243 C -5.465,7.96 -6.521,7.471 -8.128,7.955 -8.332,8.077 -8.514,8.222 -8.877,8.185 -9.07,8.396 -9.414,8.512 -9.717,8.662 l -0.015,0.031 c -0.114,0.061 -0.217,0.117 -0.316,0.171 -0.132,0.091 -0.264,0.182 -0.387,0.215 -0.588,0.333 -0.771,0.474 -0.771,0.474 l 10e-4,-0.015 c -0.607,0.707 -1.282,1.332 -2.168,1.587 -0.707,-0.365 0.126,-1.894 0.346,-2.19 1.094,-1.474 2.755,-2.659 4.265,-3.689 0.567,-0.387 1.194,-0.67 1.672,-1.038 0.335,-0.258 0.59,-0.811 0.918,-0.913 0.217,-0.182 0.478,-0.326 0.713,-0.433 0.704,-0.867 1.498,-1.687 2.461,-2.228 0.235,-0.132 0.529,-0.114 0.75,-0.288 0.606,-0.479 1.07,-1.498 1.556,-2.248 0.676,-1.043 1.351,-1.97 2.479,-2.364 0.477,0.035 0.812,-0.071 1.153,-0.173 2.782,-2.564 5.626,-4.872 8.762,-6.917 0.458,-0.299 1.023,-0.478 1.441,-0.807 0.716,-0.564 1.04,-1.502 1.347,-2.446 0.199,0.039 0.399,0.078 0.589,0.115 -0.187,0.529 -0.359,1.059 -0.495,1.582" /></g><g
           transform="translate(158.6149,468.37824)"
           id="g366"><path
             inkscape:connector-curvature="0"
             id="path368"
             style="fill:#ffffff;fill-opacity:1;fill-rule:nonzero;stroke:none"
             d="m 0,0 c 0.468,-0.393 1.315,-0.602 2.075,-0.98 0.116,-0.057 0.231,-0.114 0.346,-0.171 0.133,0.019 0.264,0.041 0.397,0.06 C 2.76,-1.056 2.711,-1.012 2.652,-0.98 1.875,-0.555 1.037,-0.16 0,0" /></g><g
           transform="translate(157.5197,467.28314)"
           id="g370"><path
             inkscape:connector-curvature="0"
             id="path372"
             style="fill:#ffffff;fill-opacity:1;fill-rule:nonzero;stroke:none"
             d="M 0,0 C -0.556,0.328 -1.416,0.352 -2.19,0.461 -1.592,0.211 -0.738,-0.08 0,0" /></g><g
           transform="translate(129.5051,492.30024)"
           id="g374"><path
             inkscape:connector-curvature="0"
             id="path376"
             style="fill:#ffffff;fill-opacity:1;fill-rule:nonzero;stroke:none"
             d="M 0,0 C -0.436,-0.255 -0.952,-0.096 -1.038,0.173 -1.33,1.093 0.502,0.949 0,0 m -0.922,-1.038 c 0.784,-0.316 1.867,-0.024 1.902,0.807 -0.049,1.244 -2.384,1.674 -2.652,0.519 0.13,-0.432 0.255,-1.126 0.75,-1.326" /></g><g
           transform="translate(158.3267,471.37574)"
           id="g378"><path
             inkscape:connector-curvature="0"
             id="path380"
             style="fill:#ffffff;fill-opacity:1;fill-rule:nonzero;stroke:none"
             d="M 0,0 C 0.547,-0.356 1.377,-0.429 2.075,-0.634 1.617,-0.212 0.682,-0.011 0,0" /></g><g
           transform="translate(153.8305,471.43344)"
           id="g382"><path
             inkscape:connector-curvature="0"
             id="path384"
             style="fill:#ffffff;fill-opacity:1;fill-rule:nonzero;stroke:none"
             d="M 0,0 C 1.203,0.112 2.503,0.207 3.862,0 2.862,0.592 1.121,0.238 0,0" /></g><g
           transform="translate(158.6263,466.84934)"
           id="g386"><path
             inkscape:connector-curvature="0"
             id="path388"
             style="fill:#ffffff;fill-opacity:1;fill-rule:nonzero;stroke:none"
             d="M 0,0 C 0.118,0.019 0.237,0.037 0.355,0.056 -0.034,0.201 -0.442,0.314 -0.876,0.376 -0.633,0.268 -0.328,0.142 0,0" /></g></g></g></g></svg>